<svg version="1.2" xmlns="http://www.w3.org/2000/svg" viewBox="0 0 128 128" width="128" height="128">
	<title>easystroke-svg</title>
	<style>
		.s0 { fill: none;stroke: #0000ff;stroke-linecap: round;stroke-width: 8 } 
		.s1 { fill: none;stroke: #0007f8;stroke-linecap: round;stroke-width: 8 } 
		.s2 { fill: none;stroke: #0011ee;stroke-linecap: round;stroke-width: 8 } 
		.s3 { fill: none;stroke: #001ae5;stroke-linecap: round;stroke-width: 8 } 
		.s4 { fill: none;stroke: #0023dc;stroke-linecap: round;stroke-width: 8 } 
		.s5 { fill: none;stroke: #002dd2;stroke-linecap: round;stroke-width: 8 } 
		.s6 { fill: none;stroke: #0036c9;stroke-linecap: round;stroke-width: 8 } 
		.s7 { fill: none;stroke: #003cc3;stroke-linecap: round;stroke-width: 8 } 
		.s8 { fill: none;stroke: #0041be;stroke-linecap: round;stroke-width: 8 } 
		.s9 { fill: none;stroke: #0045ba;stroke-linecap: round;stroke-width: 8 } 
		.s10 { fill: none;stroke: #0048b7;stroke-linecap: round;stroke-width: 8 } 
		.s11 { fill: none;stroke: #004bb4;stroke-linecap: round;stroke-width: 8 } 
		.s12 { fill: none;stroke: #004eb1;stroke-linecap: round;stroke-width: 8 } 
		.s13 { fill: none;stroke: #0053ac;stroke-linecap: round;stroke-width: 8 } 
		.s14 { fill: none;stroke: #005aa5;stroke-linecap: round;stroke-width: 8 } 
		.s15 { fill: none;stroke: #00629d;stroke-linecap: round;stroke-width: 8 } 
		.s16 { fill: none;stroke: #006c93;stroke-linecap: round;stroke-width: 8 } 
		.s17 { fill: none;stroke: #00758a;stroke-linecap: round;stroke-width: 8 } 
		.s18 { fill: none;stroke: #007f80;stroke-linecap: round;stroke-width: 8 } 
		.s19 { fill: none;stroke: #008877;stroke-linecap: round;stroke-width: 8 } 
		.s20 { fill: none;stroke: #008f70;stroke-linecap: round;stroke-width: 8 } 
		.s21 { fill: none;stroke: #00956a;stroke-linecap: round;stroke-width: 8 } 
		.s22 { fill: none;stroke: #009966;stroke-linecap: round;stroke-width: 8 } 
		.s23 { fill: none;stroke: #009c63;stroke-linecap: round;stroke-width: 8 } 
		.s24 { fill: none;stroke: #009f60;stroke-linecap: round;stroke-width: 8 } 
		.s25 { fill: none;stroke: #00a25d;stroke-linecap: round;stroke-width: 8 } 
		.s26 { fill: none;stroke: #00a659;stroke-linecap: round;stroke-width: 8 } 
		.s27 { fill: none;stroke: #00ac53;stroke-linecap: round;stroke-width: 8 } 
		.s28 { fill: none;stroke: #00b44b;stroke-linecap: round;stroke-width: 8 } 
		.s29 { fill: none;stroke: #00be41;stroke-linecap: round;stroke-width: 8 } 
		.s30 { fill: none;stroke: #00c738;stroke-linecap: round;stroke-width: 8 } 
		.s31 { fill: none;stroke: #00d12e;stroke-linecap: round;stroke-width: 8 } 
		.s32 { fill: none;stroke: #00da25;stroke-linecap: round;stroke-width: 8 } 
		.s33 { fill: none;stroke: #00e21d;stroke-linecap: round;stroke-width: 8 } 
		.s34 { fill: none;stroke: #00e817;stroke-linecap: round;stroke-width: 8 } 
		.s35 { fill: none;stroke: #00ec13;stroke-linecap: round;stroke-width: 8 } 
		.s36 { fill: none;stroke: #00f00f;stroke-linecap: round;stroke-width: 8 } 
		.s37 { fill: none;stroke: #00f30c;stroke-linecap: round;stroke-width: 8 } 
		.s38 { fill: none;stroke: #00f609;stroke-linecap: round;stroke-width: 8 } 
		.s39 { fill: none;stroke: #00fa05;stroke-linecap: round;stroke-width: 8 } 
	</style>
	<g id="surface0">
		<path id="Layer" fill-rule="evenodd" class="s0" d="m34.1 58.3c-2.2 1.1-8.1 4.1-13.2 8.2"/>
		<path id="Layer" fill-rule="evenodd" class="s1" d="m20.9 66.5c-5 4.1-9.1 9.2-11.6 15.4"/>
		<path id="Layer" fill-rule="evenodd" class="s2" d="m9.3 81.9c-2.5 6.3-3.3 13.6-1.3 19.9"/>
		<path id="Layer" fill-rule="evenodd" class="s3" d="m8 101.8c2 6.2 7 11.4 13.1 14.1"/>
		<path id="Layer" fill-rule="evenodd" class="s4" d="m21.1 115.9c6.2 2.7 13.5 2.9 20 1.5"/>
		<path id="Layer" fill-rule="evenodd" class="s5" d="m41.1 117.4c6.6-1.4 12.2-4.5 16.7-7.6"/>
		<path id="Layer" fill-rule="evenodd" class="s6" d="m57.8 109.8c4.5-3.2 7.7-6.5 10.2-9.5"/>
		<path id="Layer" fill-rule="evenodd" class="s7" d="m68 100.3c2.6-2.9 4.4-5.5 6-7.8"/>
		<path id="Layer" fill-rule="evenodd" class="s8" d="m74 92.5c1.5-2.3 2.7-4.4 3.9-6.3"/>
		<path id="Layer" fill-rule="evenodd" class="s9" d="m77.9 86.2c1.1-2 2-3.9 2.9-5.7"/>
		<path id="Layer" fill-rule="evenodd" class="s10" d="m80.8 80.5c0.9-2 1.8-3.9 2.6-6"/>
		<path id="Layer" fill-rule="evenodd" class="s11" d="m83.4 74.5c0.8-2.1 1.6-4.3 2.4-7"/>
		<path id="Layer" fill-rule="evenodd" class="s12" d="m85.8 67.5c0.8-2.7 1.6-5.7 2.3-9.6"/>
		<path id="Layer" fill-rule="evenodd" class="s13" d="m88.1 57.9c0.6-3.8 1.1-8.4 0.8-13.9"/>
		<path id="Layer" fill-rule="evenodd" class="s14" d="m88.9 44c-0.4-5.4-1.7-11.7-4.7-17.7"/>
		<path id="Layer" fill-rule="evenodd" class="s15" d="m84.2 26.3c-3.1-5.9-7.9-11.5-13.8-14.5"/>
		<path id="Layer" fill-rule="evenodd" class="s16" d="m70.4 11.8c-6-3-13.2-3.5-19.3-1.2"/>
		<path id="Layer" fill-rule="evenodd" class="s17" d="m51.1 10.6c-6.2 2.4-11.3 7.6-14.5 13.6"/>
		<path id="Layer" fill-rule="evenodd" class="s18" d="m36.6 24.2c-3.2 6-4.4 12.8-4.6 18.8"/>
		<path id="Layer" fill-rule="evenodd" class="s19" d="m32 43c-0.1 6 0.9 11.1 2.1 15.3"/>
		<path id="Layer" fill-rule="evenodd" class="s20" d="m34.1 58.3c1.2 4.3 2.5 7.6 3.8 10.4"/>
		<path id="Layer" fill-rule="evenodd" class="s21" d="m37.9 68.7c1.3 2.8 2.5 5.1 3.6 7.1"/>
		<path id="Layer" fill-rule="evenodd" class="s22" d="m41.5 75.8c1.2 2.1 2.3 4 3.5 5.7"/>
		<path id="Layer" fill-rule="evenodd" class="s23" d="m45 81.5c1.1 1.8 2.3 3.5 3.6 5.2"/>
		<path id="Layer" fill-rule="evenodd" class="s24" d="m48.6 86.7c1.4 1.8 2.8 3.5 4.5 5.4"/>
		<path id="Layer" fill-rule="evenodd" class="s25" d="m53.1 92.1c1.7 1.9 3.6 4 6.1 6.3"/>
		<path id="Layer" fill-rule="evenodd" class="s26" d="m59.2 98.4c2.6 2.4 5.7 5 9.9 7.6"/>
		<path id="Layer" fill-rule="evenodd" class="s27" d="m69.1 106c4.2 2.5 9.5 5.1 15.7 6.4"/>
		<path id="Layer" fill-rule="evenodd" class="s28" d="m84.8 112.4c6.3 1.3 13.5 1.4 19.9-0.9"/>
		<path id="Layer" fill-rule="evenodd" class="s29" d="m104.7 111.5c6.4-2.2 12-6.8 14.8-12.7"/>
		<path id="Layer" fill-rule="evenodd" class="s30" d="m119.5 98.8c2.8-6 2.8-13.2 0.5-19.6"/>
		<path id="Layer" fill-rule="evenodd" class="s31" d="m120 79.2c-2.3-6.4-7-11.9-12-15.9"/>
		<path id="Layer" fill-rule="evenodd" class="s32" d="m108 63.3c-4.9-4-10.2-6.5-14.9-8.1"/>
		<path id="Layer" fill-rule="evenodd" class="s33" d="m93.1 55.2c-4.7-1.6-8.7-2.4-12.1-2.8"/>
		<path id="Layer" fill-rule="evenodd" class="s34" d="m81 52.4c-3.4-0.5-6.2-0.7-8.8-0.8"/>
		<path id="Layer" fill-rule="evenodd" class="s35" d="m72.2 51.6c-2.5-0.1-4.8-0.1-6.9 0"/>
		<path id="Layer" fill-rule="evenodd" class="s36" d="m65.3 51.6c-2.2 0-4.2 0.2-6.4 0.4"/>
		<path id="Layer" fill-rule="evenodd" class="s37" d="m58.9 52c-2.1 0.3-4.4 0.6-6.6 1"/>
		<path id="Layer" fill-rule="evenodd" class="s38" d="m52.3 53c-2.1 0.3-4.3 0.6-7.8 1.7"/>
		<path id="Layer" fill-rule="evenodd" class="s39" d="m44.5 54.7c-3.6 1.1-8.6 3-10.4 3.6"/>
	</g>
</svg>